<?xml version="1.0" encoding="UTF-8"?>
<svg width="36px" height="22px" viewBox="0 0 36 22" version="1.1" xmlns="http://www.w3.org/2000/svg" xmlns:xlink="http://www.w3.org/1999/xlink">
    <!-- Generator: Sketch 57.1 (83088) - https://sketch.com -->
    <title>footer__icon-mastercard</title>
    <desc>Created with Sketch.</desc>
    <g id="Mobile-view" stroke="none" stroke-width="1" fill="none" fill-rule="evenodd">
        <g id="iPhone-8" transform="translate(-20.000000, -883.000000)" fill-rule="nonzero">
            <g id="Footer" transform="translate(0.000000, 863.000000)">
                <g id="footer__icon-mastercard">
                    <g transform="translate(20.000000, 20.000000)">
                        <g id="_Group_">
                            <rect id="Rectangle" fill="#FF5F00" x="12.8534247" y="2.36575342" width="9.49315068" height="17.0605479"></rect>
                            <path d="M13.4561644,10.8975342 C13.452615,7.56784698 14.9807474,4.42156128 17.6,2.36575342 C13.1517176,-1.13012138 6.76380576,-0.620916984 2.92551717,3.53551145 C-0.91277142,7.69193988 -0.91277142,14.1001149 2.92551717,18.2565433 C6.76380576,22.4129718 13.1517176,22.9221762 17.6,19.4263014 C14.9815807,17.3711461 13.4535417,14.2261639 13.4561644,10.8975342 L13.4561644,10.8975342 Z" id="_Path_" fill="#EB001B"></path>
                            <path d="M35.1547945,10.8975342 C35.1547945,15.0514297 32.7828392,18.8406343 29.0465564,20.6558584 C25.3102736,22.4710825 20.8655202,21.9936395 17.6,19.4263014 C20.2172768,17.3694014 21.7454309,14.2248373 21.7454309,10.8960274 C21.7454309,7.56721749 20.2172768,4.42265342 17.6,2.36575342 C20.8655202,-0.201584742 25.3102736,-0.679027716 29.0465564,1.13619636 C32.7828392,2.95142044 35.1547945,6.74062509 35.1547945,10.8945205 L35.1547945,10.8975342 Z" id="Path" fill="#F79E1B"></path>
                            <path d="M34.162482,18.288363 L34.162482,17.3833984 L34.3331091,17.3833984 L34.3331091,17.1961644 L33.9010959,17.1961644 L33.9010959,17.3833984 L34.0862444,17.3833984 L34.0862444,18.288363 L34.162482,18.288363 Z M35.0010959,18.288363 L35.0010959,17.1961644 L34.8704028,17.1961644 L34.7179276,17.9763062 L34.5654523,17.1961644 L34.4492807,17.1961644 L34.4492807,18.288363 L34.5436701,18.288363 L34.5436701,17.469214 L34.6852543,18.1791431 L34.7832741,18.1791431 L34.9248583,17.469214 L34.9248583,18.2961644 L35.0010959,18.288363 Z" id="Shape" fill="#F79E1B"></path>
                        </g>
                    </g>
                </g>
            </g>
        </g>
    </g>
</svg>