<?xml version="1.0" encoding="UTF-8"?>
<svg width="18px" height="14px" viewBox="0 0 18 14" version="1.1" xmlns="http://www.w3.org/2000/svg" xmlns:xlink="http://www.w3.org/1999/xlink">
    <!-- Generator: Sketch 57.1 (83088) - https://sketch.com -->
    <title>icon-menu</title>
    <desc>Created with Sketch.</desc>
    <g id="Mobile-view" stroke="none" stroke-width="1" fill="none" fill-rule="evenodd">
        <g id="iPhone-8" transform="translate(-19.000000, -23.000000)" fill="#000000" fill-rule="nonzero">
            <g id="Header">
                <g id="Top">
                    <path d="M35.9672131,34.4800937 C36.5376056,34.4800937 37,34.9424881 37,35.5128806 C37,36.083273 36.5376056,36.5456674 35.9672131,36.5456674 L35.9672131,36.5456674 L20.0327869,36.5456674 C19.4623944,36.5456674 19,36.083273 19,35.5128806 C19,34.9424881 19.4623944,34.4800937 20.0327869,34.4800937 L20.0327869,34.4800937 Z M20.0327869,29.1686183 L35.9672131,29.1686183 C36.5376056,29.1686183 37,29.6310127 37,30.2014052 C37,30.7337714 36.5972031,31.1720595 36.0797466,31.2281318 L35.9672131,31.234192 L20.0327869,31.234192 C19.4623944,31.234192 19,30.7717976 19,30.2014052 C19,29.6690389 19.4027969,29.2307508 19.9202534,29.1746785 L20.0327869,29.1686183 L35.9672131,29.1686183 Z M20.0327869,23.8571429 L35.9672131,23.8571429 C36.5376056,23.8571429 37,24.3195373 37,24.8899297 C37,25.422296 36.5972031,25.860584 36.0797466,25.9166564 L35.9672131,25.9227166 L20.0327869,25.9227166 C19.4623944,25.9227166 19,25.4603222 19,24.8899297 C19,24.3575635 19.4027969,23.9192754 19.9202534,23.8632031 L20.0327869,23.8571429 L35.9672131,23.8571429 Z" id="icon-menu"></path>
                </g>
            </g>
        </g>
    </g>
</svg>