<?xml version="1.0" encoding="UTF-8"?>
<svg width="10px" height="10px" viewBox="0 0 10 10" version="1.1" xmlns="http://www.w3.org/2000/svg" xmlns:xlink="http://www.w3.org/1999/xlink">
    <!-- Generator: Sketch 57.1 (83088) - https://sketch.com -->
    <title>Combined Shape</title>
    <desc>Created with Sketch.</desc>
    <g id="Page-1" stroke="none" stroke-width="1" fill="none" fill-rule="evenodd">
        <path d="M8.78063801,0.209209442 C9.05958394,-0.0697364807 9.51184464,-0.0697364807 9.79079056,0.209209442 C10.0697365,0.488155365 10.0697365,0.940416064 9.79079056,1.21936199 L9.79079056,1.21936199 L6.01,5 L9.79079056,8.78063801 C10.0418419,9.03168934 10.066947,9.42312564 9.86610596,9.70225397 L9.79079056,9.79079056 C9.51184464,10.0697365 9.05958394,10.0697365 8.78063801,9.79079056 L8.78063801,9.79079056 L5,6.01 L1.21936199,9.79079056 C0.968310656,10.0418419 0.576874357,10.066947 0.297746033,9.86610596 L0.209209442,9.79079056 C-0.0697364807,9.51184464 -0.0697364807,9.05958394 0.209209442,8.78063801 L0.209209442,8.78063801 L3.99,5 L0.209209442,1.21936199 C-0.0418418884,0.968310656 -0.0669470214,0.576874357 0.133894043,0.297746033 L0.209209442,0.209209442 C0.488155365,-0.0697364807 0.940416064,-0.0697364807 1.21936199,0.209209442 L1.21936199,0.209209442 L5,3.99 Z" id="Combined-Shape" fill="#000000" fill-rule="nonzero"></path>
    </g>
</svg>