<?xml version="1.0" encoding="UTF-8"?>
<svg width="16px" height="14px" viewBox="0 0 16 14" version="1.1" xmlns="http://www.w3.org/2000/svg" xmlns:xlink="http://www.w3.org/1999/xlink">
    <!-- Generator: Sketch 57.1 (83088) - https://sketch.com -->
    <title>icon-filter</title>
    <desc>Created with Sketch.</desc>
    <g id="Mobile-view" stroke="none" stroke-width="1" fill="none" fill-rule="evenodd">
        <g id="iPhone-8" transform="translate(-20.000000, -244.000000)" fill="#000000" fill-rule="nonzero">
            <g id="Sort-by" transform="translate(20.000000, 244.000000)">
                <path d="M4.66666667,7.33333333 C5.0348565,7.33333333 5.33333333,7.63181017 5.33333333,8 C5.33333333,8.33471803 5.08665826,8.61182201 4.76518178,8.65943829 L4.66666667,8.66666667 L3.333,8.666 L3.33333333,12.6666667 C3.33333333,13.0348565 3.0348565,13.3333333 2.66666667,13.3333333 C2.33194864,13.3333333 2.05484466,13.0866583 2.00722838,12.7651818 L2,12.6666667 L2,8.666 L0.666666667,8.66666667 C0.331948636,8.66666667 0.0548446557,8.4199916 0.00722837841,8.09851511 L0,8 C0,7.66528197 0.246675069,7.38817799 0.568151553,7.34056171 L0.666666667,7.33333333 L4.66666667,7.33333333 Z M8,6 C8.33471803,6 8.61182201,6.24667507 8.65943829,6.56815155 L8.66666667,6.66666667 L8.66666667,12.6666667 C8.66666667,13.0348565 8.36818983,13.3333333 8,13.3333333 C7.66528197,13.3333333 7.38817799,13.0866583 7.34056171,12.7651818 L7.33333333,12.6666667 L7.33333333,6.66666667 C7.33333333,6.29847683 7.63181017,6 8,6 Z M15.3333333,8.66666667 C15.7015232,8.66666667 16,8.9651435 16,9.33333333 C16,9.70152317 15.7015232,10 15.3333333,10 L15.3333333,10 L14,9.999 L14,12.6666667 C14,13.0348565 13.7015232,13.3333333 13.3333333,13.3333333 C12.9986153,13.3333333 12.7215113,13.0866583 12.673895,12.7651818 L12.6666667,12.6666667 L12.666,9.999 L11.3333333,10 C10.9986153,10 10.7215113,9.75332493 10.673895,9.43184845 L10.6666667,9.33333333 C10.6666667,8.9651435 10.9651435,8.66666667 11.3333333,8.66666667 L11.3333333,8.66666667 L13.333,8.666 Z M13.3333333,1.13686838e-13 C13.6680514,1.13686838e-13 13.9451553,0.246675069 13.9927716,0.568151553 L14,0.666666667 L14,6.66666667 C14,7.0348565 13.7015232,7.33333333 13.3333333,7.33333333 C12.9986153,7.33333333 12.7215113,7.08665826 12.673895,6.76518178 L12.6666667,6.66666667 L12.6666667,0.666666667 C12.6666667,0.298476833 12.9651435,1.13686838e-13 13.3333333,1.13686838e-13 Z M2.66666667,1.13686838e-13 C3.0013847,1.13686838e-13 3.27848868,0.246675069 3.32610495,0.568151553 L3.33333333,0.666666667 L3.33333333,5.33333333 C3.33333333,5.70152317 3.0348565,6 2.66666667,6 C2.33194864,6 2.05484466,5.75332493 2.00722838,5.43184845 L2,5.33333333 L2,0.666666667 C2,0.298476833 2.29847683,1.13686838e-13 2.66666667,1.13686838e-13 Z M8,1.13686838e-13 C8.33471803,1.13686838e-13 8.61182201,0.246675069 8.65943829,0.568151553 L8.66666667,0.666666667 L8.666,3.333 L10,3.33333333 C10.334718,3.33333333 10.611822,3.5800084 10.6594383,3.90148489 L10.6666667,4 C10.6666667,4.33471803 10.4199916,4.61182201 10.0985151,4.65943829 L10,4.66666667 L6,4.66666667 C5.63181017,4.66666667 5.33333333,4.36818983 5.33333333,4 C5.33333333,3.66528197 5.5800084,3.38817799 5.90148489,3.34056171 L6,3.33333333 L7.333,3.333 L7.33333333,0.666666667 C7.33333333,0.298476833 7.63181017,1.13686838e-13 8,1.13686838e-13 Z" id="icon-filter"></path>
            </g>
        </g>
    </g>
</svg>