<?xml version="1.0" encoding="UTF-8"?>
<svg width="18px" height="18px" viewBox="0 0 18 18" version="1.1" xmlns="http://www.w3.org/2000/svg" xmlns:xlink="http://www.w3.org/1999/xlink">
    <!-- Generator: Sketch 57.1 (83088) - https://sketch.com -->
    <title>Shape</title>
    <desc>Created with Sketch.</desc>
    <g id="Mobile-view" stroke="none" stroke-width="1" fill="none" fill-rule="evenodd">
        <g id="iPhone-8" transform="translate(-337.000000, -885.000000)" fill="#000000" fill-rule="nonzero">
            <g id="Footer" transform="translate(0.000000, 863.000000)">
                <g id="Shape">
                    <path d="M346,23.62225 C348.403,23.62225 348.688,23.63125 349.6375,23.67475 C352.0765,23.78575 353.21575,24.943 353.32675,27.364 C353.37025,28.31275 353.3785,28.59775 353.3785,31.00075 C353.3785,33.4045 353.3695,33.68875 353.32675,34.6375 C353.215,37.05625 352.07875,38.21575 349.6375,38.32675 C348.688,38.37025 348.4045,38.37925 346,38.37925 C343.597,38.37925 343.312,38.37025 342.36325,38.32675 C339.91825,38.215 338.785,37.0525 338.674,34.63675 C338.6305,33.688 338.6215,33.40375 338.6215,31 C338.6215,28.597 338.63125,28.31275 338.674,27.36325 C338.78575,24.943 339.922,23.785 342.36325,23.674 C343.31275,23.63125 343.597,23.62225 346,23.62225 L346,23.62225 Z M346,22 C343.55575,22 343.24975,22.0105 342.28975,22.054 C339.02125,22.204 337.20475,24.0175 337.05475,27.289 C337.0105,28.24975 337,28.55575 337,31 C337,33.44425 337.0105,33.751 337.054,34.711 C337.204,37.9795 339.0175,39.796 342.289,39.946 C343.24975,39.9895 343.55575,40 346,40 C348.44425,40 348.751,39.9895 349.711,39.946 C352.9765,39.796 354.7975,37.9825 354.94525,34.711 C354.9895,33.751 355,33.44425 355,31 C355,28.55575 354.9895,28.24975 354.946,27.28975 C354.799,24.02425 352.98325,22.20475 349.71175,22.05475 C348.751,22.0105 348.44425,22 346,22 Z M346,26.3785 C343.44775,26.3785 341.3785,28.44775 341.3785,31 C341.3785,33.55225 343.44775,35.62225 346,35.62225 C348.55225,35.62225 350.6215,33.553 350.6215,31 C350.6215,28.44775 348.55225,26.3785 346,26.3785 Z M346,34 C344.34325,34 343,32.6575 343,31 C343,29.34325 344.34325,28 346,28 C347.65675,28 349,29.34325 349,31 C349,32.6575 347.65675,34 346,34 Z M350.8045,25.11625 C350.2075,25.11625 349.72375,25.6 349.72375,26.19625 C349.72375,26.7925 350.2075,27.27625 350.8045,27.27625 C351.40075,27.27625 351.88375,26.7925 351.88375,26.19625 C351.88375,25.6 351.40075,25.11625 350.8045,25.11625 Z"></path>
                </g>
            </g>
        </g>
    </g>
</svg>