<?xml version="1.0" encoding="UTF-8"?>
<svg width="10px" height="11px" viewBox="0 0 10 11" version="1.1" xmlns="http://www.w3.org/2000/svg" xmlns:xlink="http://www.w3.org/1999/xlink">
    <!-- Generator: Sketch 57.1 (83088) - https://sketch.com -->
    <title>Combined Shape</title>
    <desc>Created with Sketch.</desc>
    <g id="Symbols" stroke="none" stroke-width="1" fill="none" fill-rule="evenodd">
        <g id="Desktop/Cart/Payment-added" transform="translate(-143.000000, -24.000000)" fill="#000000" fill-rule="nonzero">
            <g id="Title" transform="translate(135.000000, 16.000000)">
                <g id="Icon" transform="translate(0.000000, 1.000000)">
                    <path d="M10,7 L16,7 C16.1259029,7 16.2459278,7.04742213 16.3372483,7.13085328 L16.4,7.2 L17.9,9.2 C17.9079963,9.21066172 17.91554,9.22160751 17.9226213,9.23280782 C17.9272386,9.23998447 17.9314963,9.24709668 17.9355796,9.25432059 C17.9453062,9.2716941 17.9542734,9.29011135 17.962076,9.30898709 L17.9704796,9.33033812 L17.9704796,9.33033812 L17.992506,9.41366961 L17.992506,9.41366961 L18,9.5 L18,16.5 C18,17.2796961 17.4051119,17.9204487 16.64446,17.9931334 L16.5,18 L9.5,18 C8.72030388,18 8.07955132,17.4051119 8.00686658,16.64446 L8,16.5 L8,9.5 C8,9.44183198 8.01014387,9.38450761 8.02961297,9.33048284 L8.03779224,9.30896344 L8.03779224,9.30896344 L8.065,9.252 L8.066,9.251 C8.07280365,9.24001383 8.07497473,9.23648708 8.07718801,9.23298968 L8.088,9.216 L8.1,9.2 L9.6,7.2 C9.67554175,7.09927766 9.78549436,7.03171107 9.90703161,7.00871332 L10,7 L16,7 Z M17,10 L8.999,10 L9,16.5 C9,16.7454599 9.17687516,16.9496084 9.41012437,16.9919443 L9.5,17 L16.5,17 C16.7454599,17 16.9496084,16.8231248 16.9919443,16.5898756 L17,16.5 L17,10 Z M15,11 C15.2761424,11 15.5,11.2238576 15.5,11.5 C15.5,12.8807119 14.3807119,14 13,14 C11.6192881,14 10.5,12.8807119 10.5,11.5 C10.5,11.2238576 10.7238576,11 11,11 C11.2761424,11 11.5,11.2238576 11.5,11.5 C11.5,12.3284271 12.1715729,13 13,13 C13.8284271,13 14.5,12.3284271 14.5,11.5 C14.5,11.2238576 14.7238576,11 15,11 Z M15.75,8 L10.25,8 L9.499,9 L16.5,9 L15.75,8 Z" id="Combined-Shape"></path>
                </g>
            </g>
        </g>
    </g>
</svg>