<?xml version="1.0" encoding="UTF-8"?>
<svg width="15px" height="16px" viewBox="0 0 15 16" version="1.1" xmlns="http://www.w3.org/2000/svg" xmlns:xlink="http://www.w3.org/1999/xlink">
    <!-- Generator: Sketch 57.1 (83088) - https://sketch.com -->
    <title>icon-user</title>
    <desc>Created with Sketch.</desc>
    <g id="Mobile-view" stroke="none" stroke-width="1" fill="none" fill-rule="evenodd">
        <g id="iPhone-8" transform="translate(-341.000000, -22.000000)" fill="#000000" fill-rule="nonzero">
            <g id="Header">
                <g id="Top">
                    <path d="M351.4,31.6 C353.609139,31.6 355.4,33.390861 355.4,35.6 L355.4,35.6 L355.4,37.2 C355.4,37.6418278 355.041828,38 354.6,38 C354.158172,38 353.8,37.6418278 353.8,37.2 L353.8,37.2 L353.8,35.6 C353.8,34.2745166 352.725483,33.2 351.4,33.2 L351.4,33.2 L345,33.2 C343.674517,33.2 342.6,34.2745166 342.6,35.6 L342.6,35.6 L342.6,37.2 C342.6,37.6418278 342.241828,38 341.8,38 C341.358172,38 341,37.6418278 341,37.2 L341,37.2 L341,35.6 C341,33.390861 342.790861,31.6 345,31.6 L345,31.6 Z M348.2,22 C350.409139,22 352.2,23.790861 352.2,26 C352.2,28.209139 350.409139,30 348.2,30 C345.990861,30 344.2,28.209139 344.2,26 C344.2,23.790861 345.990861,22 348.2,22 Z M348.2,23.6 C346.874517,23.6 345.8,24.6745166 345.8,26 C345.8,27.3254834 346.874517,28.4 348.2,28.4 C349.525483,28.4 350.6,27.3254834 350.6,26 C350.6,24.6745166 349.525483,23.6 348.2,23.6 Z" id="icon-user"></path>
                </g>
            </g>
        </g>
    </g>
</svg>