<?xml version="1.0" encoding="UTF-8"?>
<svg width="14px" height="14px" viewBox="0 0 14 14" version="1.1" xmlns="http://www.w3.org/2000/svg" xmlns:xlink="http://www.w3.org/1999/xlink">
    <!-- Generator: Sketch 57.1 (83088) - https://sketch.com -->
    <title>icon-search</title>
    <desc>Created with Sketch.</desc>
    <g id="Flow" stroke="none" stroke-width="1" fill="none" fill-rule="evenodd">
        <g id="Products" transform="translate(-136.000000, -191.000000)" fill="#000000" fill-rule="nonzero">
            <g id="Filter" transform="translate(135.000000, 190.000000)">
                <g id="Search">
                    <path d="M7.3,1 C10.7793939,1 13.6,3.82060608 13.6,7.3 C13.6,8.78759716 13.0844083,10.1547714 12.2221773,11.2325704 L14.7949747,13.8050253 C15.0683418,14.0783923 15.0683418,14.5216077 14.7949747,14.7949747 C14.5216077,15.0683418 14.0783923,15.0683418 13.8050253,14.7949747 L13.8050253,14.7949747 L11.2325704,12.2221773 C10.1547714,13.0844083 8.78759716,13.6 7.3,13.6 C3.82060608,13.6 1,10.7793939 1,7.3 C1,3.82060608 3.82060608,1 7.3,1 Z M7.3,2.4 C4.59380473,2.4 2.4,4.59380473 2.4,7.3 C2.4,10.0061953 4.59380473,12.2 7.3,12.2 C8.62931422,12.2 9.83499437,11.6706596 10.7177529,10.8112665 L10.7600253,10.7600253 C10.7759187,10.7441318 10.7923862,10.7291624 10.8093612,10.7151171 C11.6706596,9.83499437 12.2,8.62931422 12.2,7.3 C12.2,4.59380473 10.0061953,2.4 7.3,2.4 Z" id="icon-search"></path>
                </g>
            </g>
        </g>
    </g>
</svg>