<?xml version="1.0" encoding="UTF-8"?>
<svg width="56px" height="30px" viewBox="0 0 56 30" version="1.1" xmlns="http://www.w3.org/2000/svg" xmlns:xlink="http://www.w3.org/1999/xlink">
    <!-- Generator: Sketch 57.1 (83088) - https://sketch.com -->
    <title>Snicks</title>
    <desc>Created with Sketch.</desc>
    <g id="Mobile-view" stroke="none" stroke-width="1" fill="none" fill-rule="evenodd">
        <g id="iPhone-8" transform="translate(-160.000000, -15.000000)" fill="#000000" fill-rule="nonzero">
            <g id="Header">
                <g id="Top">
                    <path d="M173.506675,21.016625 C175.009503,22.0832956 177.414029,18.2859481 177.371091,17.091277 C176.684084,15.1712699 163.07275,24.5579715 164.189137,27.3739819 C165.047896,29.54999 174.064868,26.4779786 177.070525,28.8673208 C182.137205,32.7926688 170.629831,44.3127116 165.434338,44.9953808 C164.575579,45.0807145 160.238845,43.971377 160.024155,42.6913722 C159.465961,39.7046945 168.740561,31.4699972 171.445652,30.8726616 C173.206109,30.4886602 173.549613,31.512664 173.206109,32.6220015 C170.887459,31.5979976 163.115688,39.4060267 162.213991,42.1367035 C161.870487,43.0327068 162.514557,43.0327068 163.244502,42.8620395 C165.563152,42.2220372 177.628719,34.0300067 174.623062,30.4886602 C172.562039,28.0566511 162.943936,31.3419967 161.569922,27.9286507 C159.895341,23.7899686 173.764302,13.0805954 178.788044,15.2992704 C181.836639,16.6646088 179.260361,23.3633004 176.426456,23.8326354 C174.923627,24.0886364 173.291985,23.4059672 173.506675,21.016625 Z M187.976767,29.5073232 C187.118008,29.7206573 185.357552,37.61402 185.701055,37.6566868 C186.216311,37.7846873 187.762077,35.0540105 188.921402,32.2806669 L189.565472,32.4513342 C189.136092,33.9873399 187.461512,39.5340272 185.357552,39.1926926 C184.455855,39.0646921 183.554157,38.1260219 183.124778,37.4860195 C183.725909,34.8833432 184.412917,32.1526664 185.014048,29.4219896 C183.167716,29.805991 181.106694,35.6513461 180.505562,37.4006859 L180.119121,39.1500257 C179.217423,39.2353594 178.616292,38.339356 178.272788,37.7420205 C178.959796,34.5846754 179.904431,30.5739938 180.634376,27.4166488 C181.664887,27.4593156 182.824212,27.9286507 183.124778,28.6539867 C183.725909,27.9286507 184.327041,27.4593156 185.014048,27.4166488 C186.044559,27.3739819 188.234395,28.099318 187.976767,29.5073232 Z M189.866038,28.1419848 C190.853611,28.1846516 192.657005,28.6539867 192.399377,29.9766583 C191.71237,29.8913246 189.866038,37.61402 190.252479,37.6566868 C190.767735,37.7846873 192.313501,35.0540105 193.472826,32.2806669 L194.116896,32.4513342 C193.687516,33.9873399 191.969998,39.5340272 189.908976,39.1926926 C189.007278,39.0646921 188.062643,38.1260219 187.676202,37.4860195 C188.363209,34.3713413 189.136092,31.256663 189.866038,28.1419848 Z M191.626494,26.9899805 C190.681859,26.9899805 189.908976,26.2219777 189.908976,25.2406407 C189.908976,24.3019705 190.681859,23.5339677 191.626494,23.5339677 C192.571129,23.5339677 193.38695,24.3019705 193.38695,25.2406407 C193.38695,26.2219777 192.571129,26.9899805 191.626494,26.9899805 Z M200.428776,32.2806669 L201.072845,32.4513342 C199.612955,38.1260219 196.650235,39.4060267 195.834414,39.3633599 C189.994851,39.0646921 193.773392,27.4593156 197.938374,27.4593156 C200.944031,27.4593156 200.643466,31.0859957 198.539506,30.531327 C198.711257,29.8913246 198.539506,29.3793227 198.02425,29.4219896 C195.834414,29.7206573 193.859268,36.4193489 196.049104,37.6566868 C196.220856,37.7420205 198.410692,37.0166845 200.428776,32.2806669 Z M199.054761,37.9126878 L203.262681,19.8646207 C204.55082,19.9072875 206.053649,20.6326235 205.796021,21.741961 C205.366641,21.6139605 204.33613,25.2833075 203.305619,29.3366559 C204.293192,28.3126521 205.452517,27.4166488 206.225401,27.3739819 C209.016368,27.5446492 208.672864,32.3233337 204.722572,32.4086673 C207.127098,33.3046707 204.937262,37.5713532 205.452517,37.6566868 C206.139525,37.7420205 208.071733,33.8593394 208.672864,32.2806669 L209.316934,32.4513342 C208.844616,34.1580072 207.127098,39.3633599 205.237827,39.1926926 C204.078502,39.1500257 203.133867,37.9553546 202.833302,37.4860195 C203.090929,35.9926807 204.722572,33.1766702 202.66155,32.0673327 C201.888667,35.182011 201.244597,38.0833551 200.986969,39.1500257 C200.085272,39.2353594 199.441203,38.5100234 199.054761,37.9126878 Z M203.047991,31.0859957 C206.268338,31.6406645 206.053649,29.5926569 205.581331,29.4219896 C205.151952,29.5926569 203.734999,30.4886602 203.047991,31.0859957 Z M215.156496,26.6486459 L215.5,27.8859838 C213.009598,31.1286626 216.358759,39.320693 210.690948,39.320693 C207.728229,39.320693 207.685291,35.9500138 209.316934,34.7126759 C210.132755,34.0726735 210.991514,34.7126759 210.64801,35.6086792 C209.531623,35.2673446 208.715802,37.61402 210.433321,37.6566868 C213.567792,37.6993537 211.29208,31.7259981 212.064963,28.4833194 C210.733886,29.5073232 209.832189,31.1713294 209.231058,32.7073351 L208.586988,32.494001 C209.40281,30.4459934 210.64801,27.843317 212.709033,26.8193132 C213.39604,26.4779786 214.512427,26.136644 215.156496,26.6486459 Z" id="Snicks"></path>
                </g>
            </g>
        </g>
    </g>
</svg>